#N canvas 0 22 899 745 10;
#X obj 174 682 dac~;
#X obj 83 511 *~;
#X obj 99 354 vsl 15 128 0 1 0 0 empty empty empty 0 -8 0 8 -260097
-1 -1 3300 1;
#X obj 83 65 notein;
#X obj 83 194 mtof;
#X obj 83 124 stripnote;
#X obj 83 324 osc~;
#X obj 132 324 osc~;
#X obj 228 324 osc~;
#X obj 276 325 osc~;
#X obj 180 324 osc~;
#X obj 132 274 *;
#X obj 180 276 *;
#X obj 228 275 *;
#X obj 276 276 *;
#X obj 132 511 *~;
#X obj 148 354 vsl 15 128 0 1 0 0 empty empty empty 0 -8 0 8 -260097
-1 -1 0 1;
#X obj 180 509 *~;
#X obj 196 354 vsl 15 128 0 1 0 0 empty empty empty 0 -8 0 8 -260097
-1 -1 0 1;
#X obj 228 507 *~;
#X obj 244 354 vsl 15 128 0 1 0 0 empty empty empty 0 -8 0 8 -260097
-1 -1 4100 1;
#X obj 276 510 *~;
#X obj 292 355 vsl 15 128 0 1 0 0 empty empty empty 0 -8 0 8 -260097
-1 -1 0 1;
#X obj 83 549 +~;
#X obj 180 545 +~;
#X obj 276 545 +~;
#X obj 83 591 +~;
#X obj 328 326 osc~;
#X obj 328 277 *;
#X obj 328 511 *~;
#X obj 344 356 vsl 15 128 0 1 0 0 empty empty empty 0 -8 0 8 -260097
-1 -1 6800 1;
#X obj 276 592 +~;
#X obj 379 326 osc~;
#X obj 379 277 *;
#X obj 379 511 *~;
#X obj 395 356 vsl 15 128 0 1 0 0 empty empty empty 0 -8 0 8 -260097
-1 -1 100 1;
#X obj 379 546 +~;
#X obj 429 326 osc~;
#X obj 429 277 *;
#X obj 429 511 *~;
#X obj 445 356 vsl 15 128 0 1 0 0 empty empty empty 0 -8 0 8 -260097
-1 -1 0 1;
#X obj 177 632 +~;
#X msg 148 195 2;
#X msg 196 195 3;
#X msg 244 195 4;
#X msg 292 195 5;
#X msg 344 195 6;
#X msg 395 195 7;
#X msg 445 195 8;
#X connect 1 0 23 0;
#X connect 2 0 1 1;
#X connect 3 0 5 0;
#X connect 3 1 5 1;
#X connect 4 0 6 0;
#X connect 4 0 11 0;
#X connect 4 0 12 0;
#X connect 4 0 13 0;
#X connect 4 0 14 0;
#X connect 4 0 28 0;
#X connect 4 0 33 0;
#X connect 4 0 38 0;
#X connect 5 0 4 0;
#X connect 5 0 48 0;
#X connect 5 0 47 0;
#X connect 5 0 46 0;
#X connect 5 0 45 0;
#X connect 5 0 44 0;
#X connect 5 0 43 0;
#X connect 5 0 42 0;
#X connect 6 0 1 0;
#X connect 7 0 15 0;
#X connect 8 0 19 0;
#X connect 9 0 21 0;
#X connect 10 0 17 0;
#X connect 11 0 7 0;
#X connect 12 0 10 0;
#X connect 13 0 8 0;
#X connect 14 0 9 0;
#X connect 15 0 23 1;
#X connect 16 0 15 1;
#X connect 17 0 24 0;
#X connect 18 0 17 1;
#X connect 19 0 24 1;
#X connect 20 0 19 1;
#X connect 21 0 25 0;
#X connect 22 0 21 1;
#X connect 23 0 26 0;
#X connect 24 0 26 1;
#X connect 25 0 31 0;
#X connect 26 0 41 0;
#X connect 27 0 29 0;
#X connect 28 0 27 0;
#X connect 29 0 25 1;
#X connect 30 0 29 1;
#X connect 31 0 41 1;
#X connect 32 0 34 0;
#X connect 33 0 32 0;
#X connect 34 0 36 0;
#X connect 35 0 34 1;
#X connect 36 0 31 1;
#X connect 37 0 39 0;
#X connect 38 0 37 0;
#X connect 39 0 36 1;
#X connect 40 0 39 1;
#X connect 41 0 0 0;
#X connect 41 0 0 1;
#X connect 42 0 11 1;
#X connect 43 0 12 1;
#X connect 44 0 13 1;
#X connect 45 0 14 1;
#X connect 46 0 28 1;
#X connect 47 0 33 1;
#X connect 48 0 38 1;
